<?xml version="1.0" encoding="iso-8859-1"?>
<!-- Generator: Adobe Illustrator 18.0.0, SVG Export Plug-In . SVG Version: 6.00 Build 0)  -->
<!DOCTYPE svg PUBLIC "-//W3C//DTD SVG 1.1//EN" "http://www.w3.org/Graphics/SVG/1.1/DTD/svg11.dtd">
<svg fill="#E1E2E2" version="1.1" id="Capa_1" xmlns="http://www.w3.org/2000/svg" xmlns:xlink="http://www.w3.org/1999/xlink" x="0px" y="0px"
	 viewBox="0 0 297 297" style="enable-background:new 0 0 297 297;" xml:space="preserve">
<path d="M279.233,109.357c0-5.574-4.52-10.095-10.095-10.095c-5.573,0-10.095,4.521-10.095,10.095v24.38h-15.323V10.094
	C243.721,4.519,239.202,0,233.628,0c-5.576,0-10.095,4.519-10.095,10.094v6.428H73.467v-6.428C73.467,4.519,68.948,0,63.372,0
	c-5.574,0-10.093,4.519-10.093,10.094v123.645H37.956v-24.382c0-5.574-4.521-10.095-10.095-10.095s-10.095,4.521-10.095,10.095
	v68.951c0,5.573,4.521,10.094,10.095,10.094h23.165l77.167,44.203l-79.498,45.539c-4.838,2.771-6.513,8.939-3.741,13.775
	c1.863,3.256,5.267,5.08,8.769,5.08c1.7,0,3.426-0.432,5.007-1.339l89.772-51.423l89.77,51.423c1.582,0.907,3.307,1.339,5.008,1.339
	c3.502,0,6.904-1.824,8.769-5.08c2.771-4.836,1.097-11.004-3.741-13.775l-79.498-45.539l77.166-44.203h23.165
	c5.574,0,10.095-4.52,10.095-10.094V109.357z M223.533,36.711v57.381H73.467V36.711H223.533z M73.467,114.281h150.066v19.456
	l-150.066,0.002V114.281z M148.501,220.973l-56.859-32.57h113.718L148.501,220.973z M37.956,168.213v-14.285l221.088-0.002v14.287
	H37.956z"/>
<g>
</g>
<g>
</g>
<g>
</g>
<g>
</g>
<g>
</g>
<g>
</g>
<g>
</g>
<g>
</g>
<g>
</g>
<g>
</g>
<g>
</g>
<g>
</g>
<g>
</g>
<g>
</g>
<g>
</g>
</svg>
